<?xml version="1.0" standalone="no"?>
<!DOCTYPE svg PUBLIC "-//W3C//DTD SVG 20010904//EN"
 "http://www.w3.org/TR/2001/REC-SVG-20010904/DTD/svg10.dtd">
<svg version="1.0" xmlns="http://www.w3.org/2000/svg"
 width="523.000000pt" height="523.000000pt" viewBox="0 0 523.000000 523.000000"
 preserveAspectRatio="xMidYMid meet">
<metadata>
Created by potrace 1.11, written by Peter Selinger 2001-2013
</metadata>
<g transform="translate(0.000000,523.000000) scale(0.100000,-0.100000)"
fill="#000000" stroke="none">
<path d="M1487 5213 c-1 -1 -103 -3 -227 -4 -138 -2 -254 -8 -300 -17 -481
-89 -871 -492 -944 -977 -11 -73 -14 -382 -13 -1637 0 -1479 1 -1550 19 -1633
25 -119 52 -194 103 -297 67 -135 162 -263 249 -338 17 -14 40 -35 53 -47 12
-13 26 -23 32 -23 5 0 11 -3 13 -7 14 -34 243 -154 358 -189 14 -4 30 -9 35
-11 98 -31 120 -31 1765 -29 899 1 1649 5 1665 9 33 9 111 34 135 44 8 3 22 7
30 9 39 8 227 110 284 154 206 161 343 352 422 586 56 166 54 103 53 1779 -1
853 -5 1584 -10 1626 -27 240 -176 518 -376 700 -73 67 -248 184 -288 194 -5
1 -21 7 -35 12 -78 33 -130 52 -130 48 0 -3 -9 -1 -20 5 -10 6 -32 12 -47 14
-15 3 -39 7 -53 10 -66 16 -278 19 -1478 20 -712 0 -1294 0 -1295 -1z"/>
</g>
</svg>
